<?xml version="1.0" encoding="UTF-8"?> <svg width="16px" height="16px" viewBox="0 0 16 16" version="1.1" xmlns="http://www.w3.org/2000/svg" xmlns:xlink="http://www.w3.org/1999/xlink"> <title>icon/link/amazonmusic/color</title> <g id="icon/link/amazonmusic/color" stroke="none" stroke-width="1" fill="none" fill-rule="evenodd"> <path d="M13.5939375,13.14525 C7.01675,16.2754375 2.934875,13.6565 0.3219375,12.0658125 C0.16025,11.9655625 -0.1145625,12.08925 0.123875,12.363125 C0.994375,13.418625 3.8471875,15.9626875 7.5709375,15.9626875 C11.29725,15.9626875 13.5140625,13.9294375 13.791375,13.57475 C14.0668125,13.2230625 13.87225,13.0290625 13.593875,13.14525 L13.5939375,13.14525 Z M15.441125,12.125125 C15.2645,11.895125 14.367125,11.85225 13.802375,11.921625 C13.23675,11.989 12.38775,12.3346875 12.4615625,12.54225 C12.4994375,12.62 12.57675,12.585125 12.9653125,12.5501875 C13.3549375,12.5113125 14.4464375,12.3735625 14.673875,12.670875 C14.902375,12.97025 14.32575,14.396375 14.2204375,14.626375 C14.1186875,14.856375 14.2593125,14.9156875 14.4504375,14.7625 C14.6389375,14.609375 14.9801875,14.2128125 15.2091875,13.651625 C15.436625,13.087375 15.5753125,12.30025 15.4410625,12.125125 L15.441125,12.125125 Z" id="Shape" fill="#FF9900" fill-rule="nonzero"></path> <path d="M8.04460177,0.03 C9.40049558,0.03 10.4590383,0.391837991 11.2202478,1.11549558 C11.3396434,1.23870929 11.4499667,1.37092959 11.5503009,1.51105752 C11.6513863,1.65211675 11.7316695,1.77783186 11.7911504,1.88822124 C11.8506135,1.99861062 11.9041356,2.15806808 11.9517168,2.36657522 C11.9992801,2.57508236 12.0349616,2.7192141 12.0587611,2.79893363 C12.0825427,2.87865316 12.1003834,3.05038224 12.1122832,3.31408407 C12.1241651,3.5777859 12.1301239,3.73417086 12.1301239,3.78323894 L12.1301239,8.23561062 C12.1301239,8.55450714 12.1747257,8.84582472 12.2639292,9.10952655 C12.3531327,9.37322838 12.4393569,9.56335569 12.5226195,9.67987168 C12.6058642,9.79638767 12.7426489,9.98344248 12.9329558,10.2410177 C13.0043186,10.3514071 13.04,10.4495248 13.04,10.5353894 C13.04,10.6335071 12.9924188,10.7193717 12.8972743,10.7929646 C11.9100766,11.6760796 11.3748554,12.1544336 11.2916106,12.2280265 C11.148885,12.3384159 10.9764188,12.3506875 10.7742301,12.264823 C10.6077049,12.1176372 10.4620177,11.9765779 10.3371327,11.8416637 C10.2122478,11.7067495 10.1230442,11.6086133 10.0695221,11.547292 C10.016,11.4859707 9.92975802,11.3663822 9.81083186,11.1885265 C9.69188786,11.0106709 9.60862527,10.8910824 9.56106195,10.8297611 C8.89499696,11.5779619 8.24084956,12.0440442 7.59858407,12.2280265 C7.19418874,12.3506875 6.69464892,12.4120088 6.0999646,12.4120088 C5.1841297,12.4120088 4.43185841,12.1207097 3.84311504,11.5380929 C3.25437168,10.9554762 2.96,10.1306283 2.96,9.06353097 C2.96,8.21721239 3.16218874,7.49355481 3.56658407,6.89253982 C3.97096156,6.29152484 4.5240235,5.8377141 5.22576991,5.5310708 C5.8680354,5.24897073 6.6589675,5.0465902 7.59858407,4.9239292 C7.91971681,4.88713274 8.4430383,4.83806466 9.16856637,4.77674336 L9.16856637,4.46397345 C9.16856637,3.67897617 9.08530379,3.1515725 8.91879646,2.88172566 C8.66902655,2.51376106 8.27653097,2.32977876 7.74130973,2.32977876 L7.59858407,2.32977876 C7.2060885,2.36657522 6.86711504,2.49536283 6.58166372,2.71614159 C6.29621239,2.93692035 6.11184651,3.24356365 6.02860177,3.6360531 C5.9810206,3.8813567 5.8620766,4.02241593 5.67178761,4.05921239 L3.62010619,3.80163717 C3.41789961,3.75256909 3.31681416,3.64217971 3.31681416,3.47046903 C3.31681416,3.43367257 3.32275512,3.3907495 3.33465487,3.34168142 C3.53684361,2.25005923 4.03340404,1.44053711 4.82435398,0.913115044 C5.61528609,0.385692982 6.5400235,0.0913213009 7.59858407,0.03 L8.04460177,0.03 Z M9.16856637,6.50617699 C8.47871972,6.50617699 7.95539823,6.55524507 7.59858407,6.65336283 C6.55192326,6.96000613 6.02860177,7.64074065 6.02860177,8.69556637 C6.02860177,9.17392035 6.14456637,9.55721068 6.37649558,9.84545575 C6.60842478,10.1337008 6.92063717,10.2778142 7.31313274,10.2778142 C7.34881416,10.2778142 7.39935688,10.2716875 7.46477876,10.2594159 C7.5301828,10.2471443 7.57478457,10.2410177 7.59858407,10.2410177 C8.09812389,10.1061035 8.48466067,9.77493534 8.75823009,9.24751327 C8.889056,9.01446289 8.98717989,8.75996018 9.05260177,8.48398673 C9.11800581,8.20801327 9.15368722,7.98416201 9.15964602,7.81245133 C9.16459681,7.66935909 9.16749097,7.44959479 9.16831817,7.15317971 L9.16856637,6.50617699 Z" id="Combined-Shape-Copy" fill="#000000" fill-rule="nonzero"></path> </g> </svg>
