<?xml version="1.0" encoding="UTF-8"?> <svg width="16px" height="16px" viewBox="0 0 16 16" version="1.1" xmlns="http://www.w3.org/2000/svg" xmlns:xlink="http://www.w3.org/1999/xlink"> <title>icon/link/bandcamp/color</title> <defs> <path d="M9.30928125,5.76275 L9.30928125,7.3945 L9.3213125,7.3945 C9.5065625,7.0855 9.89490625,6.8938125 10.2415,6.8938125 C11.2153438,6.8938125 11.6875625,7.66053125 11.6875625,8.59396875 C11.6875625,9.45284375 11.2693125,10.262625 10.3549688,10.262625 C9.9366875,10.262625 9.4885625,10.1578125 9.2853125,9.73734375 L9.2735,9.73734375 L9.2735,10.1764375 L8.62809375,10.1764375 L8.62775,5.76975 L6.24671875,10.1668125 L1.13775,10.1668125 L3.5235625,5.76275 L9.30928125,5.76275 Z M13.488625,6.894 C14.205625,6.894 14.8153125,7.264875 14.8808125,8.04996875 L14.1996563,8.0499375 C14.1458438,7.66046875 13.8710625,7.4501875 13.494625,7.4501875 C13.1419063,7.4501875 12.6460625,7.64190625 12.6460625,8.61240625 C12.6460625,9.1440625 12.8730625,9.706625 13.4647188,9.706625 C13.8590313,9.706625 14.1338125,9.4343125 14.1996563,8.97690625 L14.8808125,8.97690625 C14.7553125,9.80521875 14.2594375,10.262625 13.4647188,10.262625 C12.4966563,10.262625 11.964875,9.5519375 11.964875,8.61240625 C11.964875,7.64815625 12.4727813,6.894 13.488625,6.894 Z M10.1515938,7.450125 C9.578375,7.450125 9.285375,7.90146875 9.285375,8.581375 C9.285375,9.2240625 9.6021875,9.7065 10.1517813,9.7065 C10.7733125,9.7065 11.0063438,9.1376875 11.0063438,8.581375 C11.005875,8.0004375 10.7130625,7.450125 10.1515938,7.450125 Z" id="path-1"></path> </defs> <g id="icon/link/bandcamp/color" stroke="none" stroke-width="1" fill="none" fill-rule="evenodd"> <circle id="Oval" fill="#1DA0C3" cx="8" cy="8" r="8"></circle> <mask id="mask-2" fill="white"> <use xlink:href="#path-1"></use> </mask> <use id="Combined-Shape" fill="#FFFFFF" xlink:href="#path-1"></use> </g> </svg>
