<?xml version="1.0" encoding="utf-8"?> <!-- Generator: Adobe Illustrator 24.0.1, SVG Export Plug-In . SVG Version: 6.00 Build 0) --> <svg version="1.1" id="Layer_1" xmlns="http://www.w3.org/2000/svg" xmlns:xlink="http://www.w3.org/1999/xlink" x="0px" y="0px" width="16px" height="16px" viewBox="0 0 16 16" style="enable-background:new 0 0 16 16;" xml:space="preserve"> <style type="text/css"> .st0{fill:#FFFFFF;} .st1{fill:none;} .st2{fill:url(#Shape_2_);} .st3{fill:url(#Shape_3_);} .st4{fill:url(#Oval_1_);} </style> <rect x="1.5" y="1.5" class="st0" width="13" height="13"/> <title>icon/link/instagram/color</title> <g id="icon_x2F_link_x2F_instagram_x2F_color"> <rect id="Rectangle" class="st1" width="16" height="16"/> <g id="icon_x2F_instagram"> <linearGradient id="Shape_2_" gradientUnits="userSpaceOnUse" x1="3.3125" y1="10.3154" x2="3.3125" y2="11.3047" gradientTransform="matrix(16 0 0 -16 -45 181)"> <stop offset="0" style="stop-color:#E09B3D"/> <stop offset="0.3" style="stop-color:#C74C4D"/> <stop offset="0.6" style="stop-color:#C21975"/> <stop offset="1" style="stop-color:#7024C4"/> </linearGradient> <path id="Shape" class="st2" d="M11.2,0H4.8C2.1,0,0,2.1,0,4.8v6.5C0,13.9,2.1,16,4.8,16h6.5c2.6,0,4.8-2.1,4.8-4.8V4.8 C16,2.1,13.9,0,11.2,0z M14.4,11.2c0,1.7-1.4,3.2-3.2,3.2H4.8c-1.7,0-3.2-1.4-3.2-3.2V4.8C1.6,3,3,1.6,4.8,1.6h6.5 c1.7,0,3.2,1.4,3.2,3.2V11.2L14.4,11.2z"/> <linearGradient id="Shape_3_" gradientUnits="userSpaceOnUse" x1="3.125" y1="10.164" x2="3.125" y2="12.0766" gradientTransform="matrix(8 0 0 -8 -17 97)"> <stop offset="0" style="stop-color:#E09B3D"/> <stop offset="0.3" style="stop-color:#C74C4D"/> <stop offset="0.6" style="stop-color:#C21975"/> <stop offset="1" style="stop-color:#7024C4"/> </linearGradient> <path id="Shape_1_" class="st3" d="M8,4C5.8,4,4,5.8,4,8s1.8,4,4,4s4-1.8,4-4S10.2,4,8,4z M8,10.4c-1.3,0-2.4-1.1-2.4-2.4 S6.7,5.6,8,5.6c1.3,0,2.4,1.1,2.4,2.4C10.4,9.3,9.3,10.4,8,10.4z"/> <linearGradient id="Oval_1_" gradientUnits="userSpaceOnUse" x1="2" y1="6.9186" x2="2" y2="14.9003" gradientTransform="matrix(2 0 0 -2 8 30)"> <stop offset="0" style="stop-color:#E09B3D"/> <stop offset="0.3" style="stop-color:#C74C4D"/> <stop offset="0.6" style="stop-color:#C21975"/> <stop offset="1" style="stop-color:#7024C4"/> </linearGradient> <circle id="Oval" class="st4" cx="12" cy="4" r="1"/> </g> </g> </svg>
