<?xml version="1.0" encoding="UTF-8"?> <svg width="16px" height="16px" viewBox="0 0 16 16" version="1.1" xmlns="http://www.w3.org/2000/svg" xmlns:xlink="http://www.w3.org/1999/xlink"> <title>icon/link/shazam/color</title> <defs> <linearGradient x1="50.0693223%" y1="0.0319632324%" x2="50.0693223%" y2="125.186549%" id="linearGradient-1"> <stop stop-color="#2255FF" offset="0%"></stop> <stop stop-color="#00AAFF" offset="100%"></stop> </linearGradient> </defs> <g id="icon/link/shazam/color" stroke="none" stroke-width="1" fill="none" fill-rule="evenodd"> <rect id="Rectangle" transform="translate(8.000000, 8.000000) scale(-1, 1) rotate(-180.000000) translate(-8.000000, -8.000000) " x="0" y="-8.70414851e-14" width="16" height="16"></rect> <g id="icon/shazam" transform="translate(8.000000, 8.000000) scale(-1, 1) rotate(-180.000000) translate(-8.000000, -8.000000) translate(0.000000, -0.000000)" fill-rule="nonzero"> <path d="M0.0470588235,8.09411765 C0.0470588235,3.71764706 3.6,0.188235294 7.95294118,0.188235294 L7.95294118,0.188235294 C12.3294118,0.188235294 15.8588235,3.74117647 15.8588235,8.09411765 L15.8588235,8.09411765 C15.8588235,12.4705882 12.3058824,16.0002313 7.95294118,16.0002313 L7.95294118,16.0002313 C3.6,16.0235294 0.0470588235,12.4705882 0.0470588235,8.09411765" id="path3396" fill="url(#linearGradient-1)"></path> <path d="M12.1882353,5.15294118 C11.4352941,4.32941176 10.0941176,3.03529412 10.0235294,2.98823529 C9.83529412,2.82352941 9.62352941,2.72941176 9.38823529,2.72941176 C9.15294118,2.72941176 8.91764706,2.82352941 8.72941176,3.01176471 C8.37647059,3.38823529 8.4,3.95294118 8.75294118,4.30588235 C8.77647059,4.32941176 10.1176471,5.6 10.8235294,6.37647059 C11.1529412,6.75294118 11.3176471,7.22352941 11.2941176,7.71764706 C11.2705882,8.23529412 11.0117647,8.72941176 10.5882353,9.08235294 C10.0235294,9.55294118 8.94117647,9.67058824 8.25882353,9.05882353 C7.85882353,8.68235294 7.36470588,8.16470588 7.34117647,8.14117647 C6.98823529,7.76470588 6.42352941,7.74117647 6.04705882,8.09411765 C5.67058824,8.44705882 5.64705882,9.01176471 6,9.38823529 C6.02352941,9.41176471 6.56470588,10 7.03529412,10.4235294 C8.32941176,11.6 10.4705882,11.6235294 11.7882353,10.4705882 C12.5882353,9.78823529 13.0588235,8.84705882 13.1294118,7.83529412 C13.2,6.84705882 12.8705882,5.88235294 12.1882353,5.15294118 M6.65882353,5.08235294 C5.81176471,5.08235294 4.96470588,5.36470588 4.30588235,5.92941176 C3.50588235,6.61176471 3.03529412,7.55294118 2.96470588,8.56470588 C2.89411765,9.55294118 3.24705882,10.4941176 3.90588235,11.2470588 C4.65882353,12.0705882 6,13.3647059 6.07058824,13.4117647 C6.44705882,13.7647059 7.01176471,13.7411765 7.36470588,13.3882353 C7.71764706,13.0117647 7.69411765,12.4470588 7.34117647,12.0941176 C7.31764706,12.0705882 5.97647059,10.8 5.27058824,10.0235294 C4.94117647,9.64705882 4.77647059,9.17647059 4.8,8.68235294 C4.82352941,8.16470588 5.08235294,7.67058824 5.50588235,7.31764706 C6.07058824,6.84705882 7.15294118,6.72941176 7.83529412,7.34117647 C8.23529412,7.71764706 8.72941176,8.23529412 8.75294118,8.25882353 C9.10588235,8.63529412 9.67058824,8.65882353 10.0470588,8.30588235 C10.4235294,7.95294118 10.4470588,7.38823529 10.0941176,7.01176471 C10.0705882,6.98823529 9.52941176,6.4 9.05882353,5.97647059 C8.4,5.38823529 7.52941176,5.08235294 6.65882353,5.08235294" id="path3408" fill="#FFFFFF"></path> </g> </g> </svg>
