<?xml version="1.0" encoding="UTF-8"?> <svg width="16px" height="16px" viewBox="0 0 16 16" version="1.1" xmlns="http://www.w3.org/2000/svg" xmlns:xlink="http://www.w3.org/1999/xlink"> <title>icon/link/tiktok/color</title> <g id="icon/link/tiktok/color" stroke="none" stroke-width="1" fill="none" fill-rule="evenodd"> <rect id="Rectangle" x="0" y="0" width="16" height="16"></rect> <g id="icon/tiktok" transform="translate(1.000000, 0.000000)" fill-rule="nonzero"> <path d="M10.283876,5.66021624 C11.296324,6.3835779 12.5366186,6.80918922 13.8761991,6.80918922 L13.8761991,4.23275815 C13.6226835,4.23281197 13.3698137,4.20638952 13.1217871,4.1538675 L13.1217871,6.18188474 C11.7823141,6.18188474 10.542181,5.75627341 9.5294639,5.03296556 L9.5294639,10.2907103 C9.5294639,12.9209011 7.39618737,15.0529399 4.76481267,15.0529399 C3.78298455,15.0529399 2.87041446,14.7562658 2.11234306,14.2474588 C2.97755723,15.1316691 4.18416452,15.6801906 5.51906331,15.6801906 C8.15059945,15.6801906 10.2839836,13.5481518 10.2839836,10.9178533 L10.2839836,5.66021624 L10.283876,5.66021624 Z M11.2145274,3.06091441 C10.6971102,2.49592601 10.3573853,1.76578383 10.283876,0.958580668 L10.283876,0.627196861 L9.56896304,0.627196861 C9.74891553,1.65315209 10.3627128,2.5296671 11.2145274,3.06091441 L11.2145274,3.06091441 Z M3.77668836,12.229128 C3.487602,11.8502806 3.33138128,11.3868384 3.33208086,10.9103194 C3.33208086,9.70737147 4.30782805,8.73200098 5.51163704,8.73200098 C5.73598571,8.73194717 5.95898903,8.76628021 6.17279025,8.83408527 L6.17279025,6.20007371 C5.92293396,6.1658483 5.67076369,6.15131864 5.41870105,6.15664618 L5.41870105,8.2068346 C5.20473839,8.13902953 4.98162744,8.10458887 4.75722496,8.10480412 C3.55341597,8.10480412 2.57772259,9.08006699 2.57772259,10.2831764 C2.57772259,11.1338609 3.06543475,11.8703531 3.77668836,12.229128 Z" id="Shape" fill="#FF004F"></path> <path d="M9.5294639,5.03291175 C10.542181,5.7562196 11.7823141,6.18183092 13.1217871,6.18183092 L13.1217871,4.15381368 C12.3741017,3.99463322 11.7121951,3.60410833 11.2145274,3.06091441 C10.362659,2.52961329 9.74891553,1.65309827 9.56896304,0.627196861 L7.69108559,0.627196861 L7.69108559,10.9177457 C7.68683432,12.1174111 6.71275535,13.0887994 5.51152941,13.0887994 C4.80366605,13.0887994 4.17480097,12.7515499 3.77652692,12.229128 C3.06532712,11.8703531 2.57761497,11.1338071 2.57761497,10.2832302 C2.57761497,9.08022843 3.55330834,8.10485793 4.75711733,8.10485793 C4.98776218,8.10485793 5.21006594,8.14075157 5.41859342,8.20688841 L5.41859342,6.1567 C2.83344456,6.21008303 0.754358266,8.32129601 0.754358266,10.9177995 C0.754358266,12.2139526 1.27209838,13.3889713 2.11239687,14.2475126 C2.87046828,14.7562658 3.78303836,15.0529937 4.76486648,15.0529937 C7.39629499,15.0529937 9.52951771,12.9208473 9.52951771,10.2907103 L9.52951771,5.03291175 L9.5294639,5.03291175 Z" id="Path" fill="#000000"></path> <path d="M13.1217871,4.15381368 L13.1217871,3.60545367 C12.4475572,3.60647612 11.7865654,3.41775202 11.2145274,3.0608606 C11.7209129,3.61497866 12.3877165,3.99705483 13.1217871,4.15381368 Z M9.56896304,0.627196861 C9.55179652,0.529148583 9.5386122,0.430454542 9.5294639,0.331383807 L9.5294639,0 L6.9366197,0 L6.9366197,10.2906565 C6.93247605,11.4901604 5.9584509,12.4615487 4.75711733,12.4615487 C4.40442336,12.4615487 4.07142515,12.3778686 3.77652692,12.2291818 C4.17480097,12.7515499 4.80366605,13.0887455 5.51152941,13.0887455 C6.71264772,13.0887455 7.68688813,12.1174649 7.69108559,10.9177995 L7.69108559,0.627196861 L9.56896304,0.627196861 Z M5.41870105,6.1567 L5.41870105,5.57293067 C5.20204772,5.54333322 4.98361854,5.52848068 4.7649203,5.52858772 C2.13327653,5.52858772 0,7.66068094 0,10.2906565 C0,11.9395035 0.838415023,13.3926306 2.11245069,14.247405 C1.27215219,13.3889175 0.75441208,12.2138449 0.75441208,10.9177457 C0.75441208,8.32129601 2.83344456,6.21008303 5.41870105,6.1567 Z" id="Shape" fill="#00F2EA"></path> </g> </g> </svg>
