<?xml version="1.0" encoding="UTF-8"?> <svg width="16px" height="16px" viewBox="0 0 16 16" version="1.1" xmlns="http://www.w3.org/2000/svg" xmlns:xlink="http://www.w3.org/1999/xlink"> <title>icon/link/twitter/color</title> <g id="icon/link/twitter/color" stroke="none" stroke-width="1" fill="none" fill-rule="evenodd"> <rect id="Rectangle" transform="translate(7.822222, 7.822222) scale(-1, 1) rotate(-180.000000) translate(-7.822222, -7.822222) " x="0" y="0" width="15.6444444" height="15.6444444"></rect> <path d="M15.6444444,2.59829702 C15.0696119,2.8731624 14.4507027,3.05904258 13.8014909,3.14209542 C14.4644767,2.7149665 14.9731943,2.0376903 15.2128609,1.23089122 C14.5921152,1.62638096 13.9061729,1.91409975 13.173399,2.06834076 C12.5893839,1.39699691 11.7546829,0.977777778 10.8309105,0.977777778 C9.05958146,0.977777778 7.62250004,2.52513141 7.62250004,4.43336945 C7.62250004,4.70427992 7.65004793,4.9672806 7.7051437,5.22039404 C5.03759007,5.07604029 2.6730632,3.70171341 1.08905976,1.60858393 C0.812662636,2.12074315 0.654721422,2.7149665 0.654721422,3.34775009 C0.654721422,4.54608402 1.22128961,5.6040191 2.08262018,6.22394928 C1.55737382,6.20714097 1.06151187,6.04993379 0.6280918,5.79286546 L0.6280918,5.8353806 C0.6280918,7.51027969 1.73459855,8.90734722 3.20381914,9.22373901 C2.93476812,9.30481441 2.65102489,9.34535211 2.35809904,9.34535211 C2.15148989,9.34535211 1.94947206,9.3245889 1.75388207,9.2840512 C2.16250905,10.6564007 3.34706814,11.656001 4.75201033,11.6826965 C3.65376794,12.61012 2.26902754,13.1628169 0.76583123,13.1628169 C0.506881102,13.1628169 0.250685762,13.1469973 0,13.1153581 C1.42055265,14.0941953 3.1083198,14.6666667 4.92005243,14.6666667 C10.8244826,14.6666667 14.0521766,9.40170941 14.0521766,4.83479155 C14.0521766,4.68450543 14.0494219,4.53421933 14.0439123,4.3868994 C14.6710858,3.89945829 15.2156157,3.2913928 15.6444444,2.59829702" id="path-1" fill="#00ACEE" fill-rule="nonzero"></path> </g> </svg>
