<?xml version="1.0" encoding="UTF-8"?> <svg width="16px" height="16px" viewBox="0 0 16 16" version="1.1" xmlns="http://www.w3.org/2000/svg" xmlns:xlink="http://www.w3.org/1999/xlink"> <title>icon/link/napster/color</title> <g id="icon/link/napster/color" stroke="none" stroke-width="1" fill="none" fill-rule="evenodd"> <path d="M8.00308761,0.5 C9.9729834,0.5 11.7452721,1.34214809 12.967966,2.69080553 C13.4866847,2.55044752 14.023929,2.47721725 14.579699,2.45280716 L14.579699,4.66192026 C15.4318796,5.18063466 16,6.12042311 16,7.182262 C16,8.25020342 15.4318796,9.18388934 14.5735237,9.70870627 L14.5673485,9.76362897 C14.2091856,13.0101709 11.380934,15.5 7.9722115,15.5 C4.563489,15.5 1.77228869,12.9613507 1.41412582,9.70870627 C0.561945195,9.1716843 0,8.23799837 0,7.17005696 C0,6.10821806 0.561945195,5.17453214 1.41412582,4.64971522 L1.41412582,2.44060212 C1.96989579,2.47111473 2.5071401,2.55655004 3.03820919,2.69080553 C4.26090313,1.34825061 6.0270166,0.5 8.00308761,0.5 Z M2.69857198,3.86859235 L2.69857198,9.02522376 C2.69857198,11.9178194 5.05750675,14.2306753 7.99073717,14.2306753 C10.9239676,14.2306753 13.2829024,11.9117168 13.2829024,9.02522376 L13.2829024,3.87469487 C12.4430722,4.1004882 11.6835199,4.48494711 11.0351216,5.0280716 C10.1705905,4.42392189 9.12080278,4.07607811 7.99073717,4.07607811 C6.84832111,4.07607811 5.79853338,4.43002441 4.94635276,5.0280716 C4.30412968,4.49104963 3.53840216,4.08828316 2.69857198,3.86859235 Z M9.21960633,12.6501221 C9.21960633,12.6501221 9.33693555,12.7111473 9.4357391,12.8820179 C9.53454265,13.0406835 9.54071787,13.1627339 9.54071787,13.1627339 C9.09610189,13.4312449 8.55885758,13.583808 7.99073717,13.583808 C7.41026631,13.583808 6.87919722,13.4312449 6.44075646,13.1627339 C6.44075646,13.1627339 6.47163257,12.9918633 6.55808568,12.8576078 C6.66923968,12.6989422 6.761868,12.6501221 6.761868,12.6501221 C7.14473176,12.7599675 7.55229641,12.8209927 7.99073717,12.8209927 C8.4230027,12.8209927 8.83674257,12.76607 9.21960633,12.6501221 Z M9.61482053,11.399105 C9.15167889,11.8323841 8.60825936,12.1741253 7.99073717,12.3755085 C7.3793902,12.1741253 6.82362022,11.8323841 6.3666538,11.399105 L9.61482053,11.399105 Z M11.89004,8.94507421 L11.992281,8.94589097 L11.992281,8.94589097 C11.9675801,9.20829943 11.9984562,9.98331977 11.1462756,10.453214 C11.0042455,10.5325468 10.6522578,10.6484947 10.3249711,10.6606998 C10.180035,10.6671613 10.0245219,10.6730526 9.86667859,10.6783738 L9.55032824,10.6882561 C8.92118713,10.7065003 8.34272482,10.7156225 8.34272482,10.7156225 C8.55268236,9.8002441 8.89849479,9.12286412 9.6333462,9.03132628 C10.2375429,8.96034431 11.1192654,8.94649953 11.6158904,8.94483399 L11.815345,8.94476637 C11.8432258,8.94484467 11.8682246,8.9449541 11.89004,8.94507421 Z M3.9706677,8.93978845 C3.97684292,8.94589097 5.45889618,8.93978845 6.34195291,9.03132628 C7.07680432,9.11065907 7.41644153,9.79414158 7.62022385,10.7095199 L7.5744621,10.7092069 C7.35176195,10.7074928 6.36265807,10.6976739 5.63797761,10.6545972 C5.31069085,10.6423922 4.9587032,10.5264443 4.8166731,10.4471115 C3.9706677,9.95890968 3.99536858,9.19609439 3.9706677,8.93978845 Z M7.99073717,1.726607 C6.5642609,1.726607 5.2674643,2.27583401 4.29177924,3.16680228 C4.50173678,3.27054516 4.75492088,3.40480065 4.95252798,3.5268511 C5.8602856,3.05695688 6.89154766,2.80065094 7.98456195,2.80065094 C9.071401,2.80065094 10.1026631,3.0630594 11.0165959,3.5268511 C11.2265535,3.39869813 11.4550367,3.27054516 11.6835199,3.15459723 C10.7201853,2.26362897 9.41721343,1.726607 7.99073717,1.726607 Z M14.7958317,1.65947925 C14.9440371,1.65947925 15.0675415,1.76445802 15.0675415,1.92501379 C15.0675415,2.08556956 14.9378618,2.19054834 14.7958317,2.19054834 C14.6476264,2.19054834 14.524122,2.08556956 14.524122,1.92501379 C14.524122,1.76445802 14.6538016,1.65947925 14.7958317,1.65947925 Z M14.7958317,1.72740669 C14.6846777,1.72740669 14.5982246,1.8138598 14.5982246,1.93118902 C14.5920494,2.04851823 14.690853,2.14114656 14.7958317,2.14114656 C14.9069857,2.14114656 14.9934388,2.05469345 14.9934388,1.93118902 C14.9934388,1.8138598 14.9069857,1.72740669 14.7958317,1.72740669 Z" id="Combined-Shape" fill="#111111" fill-rule="nonzero"></path> </g> </svg>
