<?xml version="1.0" encoding="UTF-8"?> <svg width="16px" height="16px" viewBox="0 0 16 16" version="1.1" xmlns="http://www.w3.org/2000/svg" xmlns:xlink="http://www.w3.org/1999/xlink"> <title>icon/link/soundcloud/color</title> <g id="icon/link/soundcloud/color" stroke="none" stroke-width="1" fill="none" fill-rule="evenodd"> <rect id="Rectangle" transform="translate(8.000000, 8.000000) scale(-1, 1) rotate(-180.000000) translate(-8.000000, -8.000000) " x="0" y="0" width="16" height="16"></rect> <path d="M0.773076525,8.63178415 C0.738863001,8.63178415 0.710779745,8.65949304 0.706471987,8.69771795 L0.548824685,10.1450901 L0.706471987,11.5604969 C0.710779745,11.5980542 0.738863001,11.625763 0.773076525,11.625763 C0.806710155,11.625763 0.834213522,11.5987219 0.839681058,11.5604969 L1.01812157,10.1450901 L0.839681058,8.69705026 C0.83413068,8.65890882 0.806627318,8.63178415 0.773076525,8.63178415 L0.773076525,8.63178415 Z M0.181505644,9.18654616 C0.14787201,9.18654616 0.121611266,9.21241892 0.11730351,9.24930847 L-6.9388939e-18,10.1450901 L0.11730351,11.0249308 C0.121611266,11.061737 0.14787201,11.0876931 0.181505644,11.0876931 C0.213896655,11.0876931 0.240157399,11.061737 0.245624935,11.0249308 L0.383721652,10.1450901 L0.245624935,9.24930847 C0.240157399,9.21233546 0.213896655,9.18654616 0.181505644,9.18654616 L0.181505644,9.18654616 Z M1.40126333,8.34801841 C1.35909702,8.34801841 1.32546339,8.38123569 1.32115564,8.42738935 L1.172041,10.1450901 L1.32115564,11.7993609 C1.32546339,11.845598 1.35909702,11.8787319 1.40126333,11.8787319 C1.4427669,11.8787319 1.47640054,11.845598 1.48195091,11.8000286 L1.65119602,10.1450901 L1.48195091,8.42738935 C1.47640054,8.38123569 1.4427669,8.34801841 1.40126333,8.34801841 L1.40126333,8.34801841 Z M2.03491768,8.28767646 C1.98537848,8.28767646 1.94511753,8.32765404 1.94138967,8.38065147 L1.80022781,10.1451736 L1.94138967,11.8524418 C1.94503469,11.9053558 1.98537848,11.9452499 2.03491768,11.9452499 C2.08445687,11.9452499 2.12471782,11.9052723 2.12902558,11.8524418 L2.28924096,10.1451736 L2.12902558,8.38006724 C2.12480066,8.32765404 2.08445687,8.28767646 2.03491768,8.28767646 L2.03491768,8.28767646 Z M2.78107072,8.50742798 C2.7774257,8.44708603 2.73103448,8.4015166 2.67412239,8.4015166 C2.61605053,8.4015166 2.5702392,8.44708603 2.56659418,8.5086799 L2.43338511,10.1450901 L2.56659418,11.8664632 C2.5702392,11.9273059 2.61613337,11.9736265 2.67412239,11.9736265 C2.73103448,11.9736265 2.7774257,11.9273059 2.78107072,11.8664632 L2.9326706,10.1450901 L2.78107072,8.50742798 L2.78107072,8.50742798 Z M3.3182976,7.36168208 C3.25351558,7.36168208 3.20033136,7.41459605 3.19726623,7.48295021 L3.07200994,10.146342 L3.19726623,11.8670474 C3.20033136,11.9342331 3.25351558,11.9877313 3.3182976,11.9877313 C3.38183701,11.9877313 3.43502122,11.9339827 3.43924614,11.8663797 L3.43924614,11.8670474 L3.58040799,10.146342 L3.43924614,7.48236598 C3.43493838,7.41467951 3.38183701,7.36168208 3.3182976,7.36168208 Z M3.95741948,6.74783003 C3.88468468,6.74783003 3.82545303,6.80758776 3.8223879,6.88270222 L3.70566428,10.1556062 L3.8223879,11.865879 C3.82545303,11.9404092 3.88468468,12 3.95741948,12 C4.02891166,12 4.08880604,11.9403258 4.09187118,11.8652112 L4.09187118,11.865879 L4.22450036,10.1556062 L4.09187118,6.88270222 C4.08880604,6.80758776 4.02899451,6.74783003 3.95741948,6.74783003 L3.95741948,6.74783003 Z M4.62172517,6.45237981 C4.54103758,6.45237981 4.47567567,6.51764593 4.47327327,6.60135683 L4.3638397,10.1469262 L4.47327327,11.839255 C4.47567567,11.921714 4.54112043,11.9870636 4.62172517,11.9870636 C4.70117013,11.9870636 4.76653204,11.9217975 4.76959718,11.8387543 L4.76959718,11.8400896 L4.89236822,10.1469262 L4.76959718,6.60135683 C4.76653204,6.51764593 4.70117013,6.45237981 4.62172517,6.45237981 Z M5.44301542,6.48192484 C5.4399503,6.39078596 5.36903797,6.31934376 5.28106038,6.31934376 C5.19242001,6.31934376 5.12092783,6.39078596 5.11910528,6.48192484 L5.01770735,10.1470097 L5.11910528,11.8295737 C5.12023706,11.918926 5.19236371,11.9908111 5.28106038,11.9909862 C5.36903797,11.9909862 5.4399503,11.9196275 5.44301542,11.8284886 L5.55667391,10.1470932 L5.44301542,6.48192484 L5.44301542,6.48192484 Z M5.94536607,6.39938239 C5.84943562,6.39938239 5.77181318,6.47700067 5.76999069,6.57548407 L5.67704257,10.1469262 L5.76999069,11.8135492 C5.77181318,11.9114484 5.84943562,11.9891502 5.94536607,11.9891502 C6.04129646,11.9891502 6.11833904,11.9114484 6.12140416,11.8124642 L6.12140416,11.8142169 L6.22528736,10.1470097 L6.12140416,6.57556753 C6.11825618,6.47700067 6.04129646,6.39938239 5.94536607,6.39938239 Z M6.61513929,6.51639403 C6.5112561,6.51639403 6.42816607,6.60010492 6.42568086,6.70660053 L6.34134826,10.147427 L6.42617787,11.8030332 C6.42800042,11.9083603 6.51109039,11.9920712 6.61497359,11.9920712 C6.71885678,11.9920712 6.80260947,11.9083603 6.80443202,11.8018647 L6.80443202,11.8032001 L6.8996997,10.1476774 L6.80443202,6.70618323 C6.80379491,6.6012744 6.71927184,6.51652963 6.61513929,6.51639403 L6.61513929,6.51639403 Z M7.402216,5.88342951 C7.36909968,5.86113799 7.33020743,5.84915092 7.29038,5.84896032 C7.25003625,5.84896032 7.2121777,5.86122902 7.18036656,5.8821776 C7.12311834,5.91986001 7.08826458,5.98379795 7.08741844,6.05268743 L7.08617581,6.09149656 L7.01037586,10.1467593 C7.01037586,10.1491797 7.08733558,11.7925172 7.08733558,11.7925172 L7.08733558,11.799194 C7.08982085,11.8455146 7.10688617,11.8878291 7.13505228,11.9211298 C7.17312389,11.9681464 7.2300704,11.9955467 7.2902972,11.9958269 C7.34530393,11.9958269 7.39542298,11.9723745 7.43203894,11.9354015 C7.46865486,11.8984286 7.49193329,11.8479349 7.49317592,11.7918495 L7.50170858,11.6286842 L7.57875116,10.1474271 L7.49317592,6.05268743 C7.4918723,5.98475145 7.45796939,5.92166499 7.402216,5.88342951 L7.402216,5.88342951 Z M8.07248629,5.49558852 C7.99482357,5.44767881 7.89545791,5.45513904 7.82570157,5.51411675 C7.77571099,5.55521313 7.74639819,5.61653907 7.74567672,5.68153853 L7.74509681,5.70432326 L7.65662215,10.1481782 L7.70185358,10.969513 L7.74584238,11.7692317 C7.74708501,11.8874117 7.84425804,11.9853944 7.96205858,11.9853944 C8.08010768,11.9853944 8.1772807,11.8874117 8.1790204,11.767479 L8.1790204,11.7692317 L8.27495079,10.1481782 L8.1790204,5.68153853 C8.17759804,5.60522612 8.13736453,5.53500053 8.07248629,5.49558852 L8.07248629,5.49558852 Z M14.0321011,8.03403996 C13.7625349,8.03403996 13.5053122,8.08879006 13.2707052,8.18794115 C13.1142176,6.40130198 11.6267992,5 9.81315105,5 C9.38251265,5.00049271 8.95562325,5.08063576 8.5537123,5.23644363 C8.40517759,5.29428176 8.36607642,5.35403949 8.36433672,5.46979922 L8.36433672,11.7624714 C8.36607642,11.8837395 8.45943875,11.9779665 8.57690793,11.9896509 C8.58179555,11.9903186 14.0321839,11.9896509 14.0321839,11.9896509 C15.1193124,11.9896509 16,11.112314 16,10.0170617 C15.9999171,8.92180942 15.1192296,8.03403996 14.0321011,8.03403996 Z" id="Shape" fill="#FF6400" fill-rule="nonzero"></path> </g> </svg>
