<?xml version="1.0" encoding="UTF-8"?> <svg width="16px" height="16px" viewBox="0 0 16 16" version="1.1" xmlns="http://www.w3.org/2000/svg" xmlns:xlink="http://www.w3.org/1999/xlink"> <title>icon/link/spotify/color</title> <g id="icon/link/spotify/color" stroke="none" stroke-width="1" fill="none" fill-rule="evenodd"> <rect id="Rectangle" x="0" y="0" width="16" height="16"></rect> <path d="M7.99995224,0 C3.58179441,0 0,3.58178442 0,8.00004777 C0,12.4185022 3.58179441,16 7.99995224,16 C12.4185877,16 16,12.4185022 16,8.00004777 C16,3.58207102 12.4185877,0.000382128335 7.99985671,0.000382128335 L7.99995224,0 Z M11.6686788,11.5383651 C11.5253841,11.773374 11.2177781,11.847889 10.9827748,11.7036356 C9.10446781,10.5562953 6.73991414,10.296448 3.95522041,10.9326917 C3.68687719,10.9938322 3.41939374,10.8256957 3.35825467,10.5572506 C3.29682901,10.2888054 3.46429275,10.0213156 3.73330467,9.96017506 C6.78070537,9.26365064 9.39468735,9.56371691 11.5034122,10.8524447 C11.7384155,10.9966982 11.8129288,11.3033562 11.6686788,11.5383651 L11.6686788,11.5383651 Z M12.6478592,9.35975592 C12.4673079,9.65351707 12.0832781,9.74618319 11.7900016,9.56562756 C9.63962576,8.24355905 6.36171166,7.86076199 3.81823067,8.63285229 C3.48836626,8.73249225 3.13996907,8.54658682 3.03985384,8.21728772 C2.94050284,7.88741544 3.12649937,7.53967865 3.4557906,7.43936997 C6.36113848,6.5577999 9.97302477,6.98482831 12.4424702,8.50235546 C12.7357467,8.6829111 12.8284106,9.06695008 12.6478592,9.35985145 L12.6478592,9.35975592 Z M12.7319255,7.09144212 C10.1535761,5.55996728 5.899634,5.41915299 3.43792653,6.16630942 C3.0426242,6.28620218 2.62458579,6.06303923 2.50479142,5.66772747 C2.38499704,5.27222464 2.6079636,4.85446284 3.00355251,4.73428348 C5.8294196,3.87640537 10.5270976,4.04215353 13.4955907,5.80443388 C13.8519169,6.01546426 13.9684632,6.47468698 13.7573424,6.82977974 C13.5471768,7.18535015 13.0867231,7.30256802 12.7323076,7.09144212 L12.7319255,7.09144212 Z" id="Shape" fill="#1ED760" fill-rule="nonzero"></path> </g> </svg>
